<?xml version="1.0" encoding="UTF-8" standalone="no"?>
<svg xmlns="http://www.w3.org/2000/svg" xmlns:xlink="http://www.w3.org/1999/xlink" width="620" height="620" version="1.0" viewBox="0 0 62 62">
  <defs>
    <linearGradient id="a" x1="10.978114" x2="43.214401" y1="-12.038551" y2="52.787098" gradientUnits="userSpaceOnUse">
      <stop offset="0" stop-color="#f6f6ac"/>
      <stop offset="1" stop-color="#ffd200"/>
    </linearGradient>
    <linearGradient id="b" x1="54.509937" x2="9.5471001" y1="41.179295" y2="16.248501" gradientUnits="userSpaceOnUse">
      <stop offset="0" stop-color="#ac821c"/>
      <stop offset="1" stop-color="#e8a637"/>
    </linearGradient>
    <linearGradient xlink:href="#a" id="e" x1="10.978114" x2="43.214401" y1="-12.038551" y2="52.787098" gradientUnits="userSpaceOnUse"/>
    <linearGradient xlink:href="#b" id="f" x1="54.509937" x2="9.5471001" y1="41.179295" y2="16.248501" gradientUnits="userSpaceOnUse"/>
    <radialGradient id="c">
      <stop offset="0" stop-color="silver"/>
      <stop offset=".88" stop-color="silver"/>
      <stop offset="1" stop-color="silver" stop-opacity="0"/>
    </radialGradient>
    <radialGradient xlink:href="#c" id="d" cx="32.5" cy="29.5" r="26.5" fx="32.5" fy="29.5" gradientUnits="userSpaceOnUse"/>
  </defs>
  <circle cx="32.5" cy="29.5" r="26.5" fill="url(#d)" transform="matrix(1.0648 0 0 1.06482 -2.5078217 2.5138574)"/>
  <circle cx="31" cy="31" r="25.799999" fill="url(#e)" stroke="url(#f)" stroke-width="2" transform="translate(-.4078217 1.4274574)"/>
  <path fill="#fff" d="M30.041735 16.010685c-1.270309 0-2.575729.162779-3.934768.453865-1.358401.291086-2.854047.70984-4.496513 1.320737-.012767-.001276-.024895-.001276-.037662 0-.014044.011491-.026811.025534-.037662.040856-.014682.011489-.026811.025532-.037663.041491-.001276.013406-.001276.027449 0 .040854-.001276.013405-.001276.02745 0 .041494v6.809241c-.001276.013406-.001276.027449 0 .040854-.001276.013405-.001276.02745 0 .041494.010214.015957.022981.030001.037663.040853.010213.015958.02298.030002.037662.041493.012767.001276.024895.001276.037662 0 .012767.001276.024896.001276.037663 0 .012767.001276.025534.001276.037663 0 .012767.001276.024895.001276.037662 0 1.369891-.94986 2.677863-1.673745 3.934768-2.146121 1.256904-.487059 2.449974-.743035 3.522395-.743035 1.138172 0 1.972492.278318 2.585942.825381.609621.531105.936454 1.298398.936454 2.269961 0 .634516-.172991 1.256266-.523443 1.898443-.338962.642814-.887941 1.360953-1.649488 2.104627l-1.311164 1.237754c-1.440748 1.426704-2.3855 2.62935-2.847664 3.5907-.459609.939646-.674732 2.006323-.674732 3.218543v1.073698c-.001276.013406-.001276.027448 0 .040855-.001276.013405-.001276.027449 0 .040853.010214.015321.022981.030003.037663.040216.010213.015321.02298.030003.037663.040217.012766.002552.024895.002552.037661 0 .012767.002552.025534.002552.037663 0h7.307153c.012767.002552.024895.002552.037661 0 .012767.002552.025535.002552.03894 0 .013405-.01149.026172-.024896.037662-.040217.013406-.012128.026811-.024895.037663-.040216.002553-.013404.002553-.027448 0-.040853.002553-.013407.002553-.027449 0-.040855v-.990075c0-.618558.17746-1.179025.449396-1.692256.266828-.51706.849001-1.254989 1.762474-2.145484l1.27414-1.238391c1.27797-1.29712 2.194635-2.488914 2.734677-3.631554.539403-1.154131.824105-2.474231.824105-3.920724 0-2.808086-.891132-4.931227-2.660628-6.39687-1.773327-1.479688-4.32799-2.227829-7.648668-2.227829zm-3.609477 26.931419-.237663 6.07321 6.257803-.036584c.012766.001277.054479-5.997537.051926-6.010943.002553-.013405-6.071332-.044443-6.072066-.025683z"/>
</svg>